<svg width="26" height="26" viewBox="0 0 26 26" fill="none" xmlns="http://www.w3.org/2000/svg">
<path d="M23.8324 10.6351H7.3806L14.5336 3.64292C14.9417 3.24272 15.171 2.69994 15.171 2.13397C15.171 1.56801 14.9417 1.02522 14.5336 0.625027C14.1254 0.224829 13.5718 0 12.9946 0C12.4174 0 11.8638 0.224829 11.4556 0.625027L0.617786 11.2514C0.420449 11.4535 0.265761 11.6919 0.162597 11.9528C-0.054199 12.4702 -0.054199 13.0505 0.162597 13.568C0.265761 13.8289 0.420449 14.0672 0.617786 14.2693L11.4556 24.8957C11.6571 25.0949 11.8969 25.253 12.161 25.3609C12.4251 25.4688 12.7085 25.5244 12.9946 25.5244C13.2807 25.5244 13.5641 25.4688 13.8282 25.3609C14.0923 25.253 14.3321 25.0949 14.5336 24.8957C14.7367 24.6981 14.898 24.4631 15.008 24.2041C15.1181 23.9451 15.1747 23.6673 15.1747 23.3868C15.1747 23.1062 15.1181 22.8284 15.008 22.5694C14.898 22.3104 14.7367 22.0754 14.5336 21.8778L7.3806 14.8856H23.8324C24.4073 14.8856 24.9586 14.6617 25.3651 14.2632C25.7716 13.8646 26 13.324 26 12.7604C26 12.1967 25.7716 11.6561 25.3651 11.2576C24.9586 10.859 24.4073 10.6351 23.8324 10.6351Z" fill="#F1DEC9"/>
</svg>
