<svg width="57" height="57" viewBox="0 0 57 57" fill="none" xmlns="http://www.w3.org/2000/svg">
<path d="M3.19734 20.1459L8.25609 22.4348V29.8716C8.25609 31.903 9.06306 33.8511 10.4995 35.2876C11.9359 36.724 13.8841 37.5309 15.9155 37.5309C17.9469 37.5309 19.8951 36.724 21.3315 35.2876C22.7679 33.8511 23.5748 31.903 23.5748 29.8716V22.4348L28.6425 20.1459C28.7988 20.0757 28.9314 19.9619 29.0246 19.8181C29.1178 19.6744 29.1676 19.5068 29.168 19.3355V11.4802C29.168 11.2439 29.0741 11.0174 28.9071 10.8504C28.7401 10.6834 28.5136 10.5895 28.2773 10.5895H20.9653V8.80828H22.6842C22.9204 8.80828 23.147 8.71445 23.314 8.54742C23.481 8.3804 23.5748 8.15386 23.5748 7.91766V3.5625C23.5748 3.32629 23.481 3.09976 23.314 2.93273C23.147 2.76571 22.9204 2.67188 22.6842 2.67188H9.14672C8.91051 2.67188 8.68398 2.76571 8.51695 2.93273C8.34993 3.09976 8.25609 3.32629 8.25609 3.5625V7.89984C8.25609 8.13605 8.34993 8.36259 8.51695 8.52961C8.68398 8.69664 8.91051 8.79047 9.14672 8.79047H10.8745V10.5717H3.5625C3.32629 10.5717 3.09976 10.6656 2.93273 10.8326C2.76571 10.9996 2.67188 11.2261 2.67188 11.4623V19.3177C2.66876 19.492 2.7169 19.6634 2.81031 19.8107C2.90372 19.9579 3.03829 20.0745 3.19734 20.1459ZM21.7936 29.8716C21.7936 31.4305 21.1743 32.9257 20.0719 34.028C18.9696 35.1304 17.4744 35.7497 15.9155 35.7497C14.3565 35.7497 12.8614 35.1304 11.759 34.028C10.6566 32.9257 10.0373 31.4305 10.0373 29.8716V17.5631H21.7936V29.8716ZM27.3867 18.7655L23.5748 20.4844V12.3708H27.3867V18.7655ZM21.7936 15.7819H10.0373V12.3708H21.7936V15.7819ZM10.0373 4.45312H21.7936V7.00922H10.0373V4.45312ZM12.6558 8.79047H19.1841V10.5717H12.6558V8.79047ZM4.45313 12.3708H8.25609V20.4844L4.45313 18.7655V12.3708ZM34.3158 25.5877H36.0347V27.3689H28.7227C28.4864 27.3689 28.2599 27.4627 28.0929 27.6298C27.9259 27.7968 27.832 28.0233 27.832 28.2595V36.1238C27.8324 36.2951 27.8822 36.4627 27.9754 36.6064C28.0686 36.7502 28.2012 36.864 28.3575 36.9342L33.4252 39.2142V46.6688C33.4252 48.7001 34.2321 50.6483 35.6685 52.0847C37.1049 53.5212 39.0531 54.3281 41.0845 54.3281C43.1159 54.3281 45.0641 53.5212 46.5005 52.0847C47.9369 50.6483 48.7439 48.7001 48.7439 46.6688V39.232L53.8027 36.952C53.9589 36.8818 54.0916 36.768 54.1848 36.6242C54.278 36.4805 54.3278 36.3129 54.3281 36.1416V28.2773C54.3281 28.0411 54.2343 27.8146 54.0673 27.6476C53.9002 27.4806 53.6737 27.3867 53.4375 27.3867H46.1255V25.6055H47.8533C48.0895 25.6055 48.316 25.5116 48.4831 25.3446C48.6501 25.1776 48.7439 24.9511 48.7439 24.7148V20.3597C48.7439 20.1235 48.6501 19.8969 48.4831 19.7299C48.316 19.5629 48.0895 19.4691 47.8533 19.4691H34.3158C34.0796 19.4691 33.853 19.5629 33.686 19.7299C33.519 19.8969 33.4252 20.1235 33.4252 20.3597V24.697C33.4252 24.9332 33.519 25.1598 33.686 25.3268C33.853 25.4938 34.0796 25.5877 34.3158 25.5877ZM29.6133 35.5627V29.168H33.4252V37.2816L29.6133 35.5627ZM46.9627 46.6688C46.9627 47.4407 46.8106 48.205 46.5152 48.9182C46.2198 49.6314 45.7868 50.2794 45.241 50.8252C44.6952 51.371 44.0472 51.804 43.334 52.0994C42.6208 52.3948 41.8565 52.5469 41.0845 52.5469C40.3126 52.5469 39.5482 52.3948 38.8351 52.0994C38.1219 51.804 37.4739 51.371 36.9281 50.8252C36.3822 50.2794 35.9493 49.6314 35.6539 48.9182C35.3584 48.205 35.2064 47.4407 35.2064 46.6688V34.3603H46.9627V46.6688ZM52.5469 35.5627L48.7439 37.2816V29.168H52.5469V35.5627ZM46.9627 32.5791H35.2064V29.168H46.9627V32.5791ZM44.3442 27.3867H37.8159V25.6055H44.3442V27.3867ZM35.2064 21.2503H46.9627V23.8064H35.2064V21.2503Z" fill="white"/>
</svg>
