<svg width="90" height="90" viewBox="0 0 90 90" fill="none" xmlns="http://www.w3.org/2000/svg">
<path d="M84.375 44.9834C84.375 55.4263 80.2266 65.4415 72.8423 72.8257C65.4581 80.21 55.4429 84.3584 45 84.3584C34.5571 84.3584 24.5419 80.21 17.1577 72.8257C9.77343 65.4415 5.625 55.4263 5.625 44.9834C5.625 39.8126 6.64346 34.6924 8.62224 29.9152C10.601 25.138 13.5014 20.7974 17.1577 17.1411C20.814 13.4848 25.1546 10.5844 29.9318 8.60564C34.709 6.62686 39.8292 5.6084 45 5.6084C50.1708 5.6084 55.291 6.62686 60.0682 8.60564C64.8454 10.5844 69.186 13.4848 72.8423 17.1411C76.4986 20.7974 79.399 25.138 81.3777 29.9152C83.3565 34.6924 84.375 39.8126 84.375 44.9834Z" fill="#AC9D93"/>
<path d="M35.5957 40.0773C35.5957 40.0773 12.6562 31.4201 35.1563 27.4651C35.1563 27.4651 34.541 16.3908 41.792 16.4347C45.4834 17.9293 51.1386 15.376 52.9414 17.0938C55.8277 19.8444 55.1387 27.6405 55.1387 27.6405C55.1387 27.6405 75.1539 31.8818 56.4102 39.6231L35.5957 40.0773Z" fill="#333333"/>
<path d="M50.636 16.4731C50.4191 16.4747 50.1872 16.4838 49.9548 16.505C50.1902 16.4944 50.4166 16.4838 50.636 16.4731ZM41.9678 16.505C42.1436 16.5688 42.3226 16.6273 42.5061 16.6751C42.3229 16.622 42.1433 16.5688 41.9678 16.505ZM46.4666 16.8537C45.9252 16.8962 45.3776 16.9387 44.8407 16.9387C45.3795 16.9376 45.9233 16.9068 46.4666 16.8537ZM39.4244 16.9068C39.2552 16.9813 39.0918 17.0642 38.9355 17.1545C39.0918 17.0695 39.2552 16.9823 39.4244 16.9068ZM34.4201 27.613C34.2839 27.6342 34.1464 27.6661 34.0137 27.6874C34.1469 27.6555 34.2835 27.6342 34.4201 27.613ZM34.0137 27.6874C13.4611 31.7314 35.5957 40.0854 35.5957 40.0854L56.4093 39.6294C70.0936 33.9776 63.1216 30.1983 58.3594 28.5662C58.9607 28.7756 59.6046 29.0211 60.2545 29.3081C59.709 29.1593 58.2976 28.9127 56.5576 29.6983C54.3203 30.707 37.9687 32.3082 34.1455 29.7196C33.0024 28.9436 31.9451 28.5678 31.0199 28.4232C31.9179 28.1564 32.9098 27.9096 34.0137 27.6874Z" fill="url(#paint0_linear_53_24)"/>
<path d="M56.25 36.5454C56.804 36.5454 57.3526 36.6545 57.8644 36.8665C58.3763 37.0786 58.8413 37.3893 59.2331 37.7811C59.6248 38.1728 59.9356 38.6379 60.1476 39.1497C60.3596 39.6616 60.4687 40.2102 60.4687 40.7642C60.4687 41.8831 60.0242 42.9561 59.2331 43.7473C58.4419 44.5384 57.3688 44.9829 56.25 44.9829H53.4375V42.1704H56.25V36.5454ZM33.75 36.5454C33.196 36.5454 32.6474 36.6545 32.1355 36.8665C31.6237 37.0786 31.1586 37.3893 30.7668 37.7811C30.3751 38.1728 30.0643 38.6379 29.8523 39.1497C29.6403 39.6616 29.5312 40.2102 29.5312 40.7642C29.5312 41.8831 29.9757 42.9561 30.7669 43.7473C31.5581 44.5384 32.6311 44.9829 33.75 44.9829H36.5625V42.1704H33.75V36.5454Z" fill="#D38D5F"/>
<path d="M36.5625 55.6616C36.5625 55.6616 19.5402 58.0975 14.8919 69.7461C14.8282 69.8651 14.7674 69.9852 14.7107 70.1032C18.402 74.5587 23.0299 78.146 28.265 80.6098C33.5002 83.0735 39.2141 84.3533 45 84.3579C50.7869 84.3541 56.5018 83.0747 61.738 80.6109C66.9742 78.1471 71.6029 74.5594 75.2948 70.1032C75.2363 69.9831 75.1753 69.8651 75.108 69.7461C70.4598 58.0975 53.4375 55.6616 53.4375 55.6616H36.5625Z" fill="white"/>
<path opacity="0.596" d="M53.1408 55.6206C53.1408 55.6206 54.2357 55.78 55.9424 56.2031L53.1408 59.0046V55.6206Z" fill="black" fill-opacity="0.988"/>
<path d="M36.5625 50.6079V60.537C45 68.9745 53.4375 60.537 53.4375 60.537V50.6079" fill="#D38D5F"/>
<path opacity="0.201" d="M36.5625 53.4204H53.4375C53.4375 53.4204 45 61.8579 36.5625 53.4204Z" fill="#502D16"/>
<path d="M56.25 30.9204C56.25 33.7329 56.25 42.1708 56.25 42.1708C56.25 49.937 51.2132 56.2329 45.0001 56.2329C38.7869 56.2329 33.7501 49.937 33.75 42.1706C33.75 42.1706 33.7495 33.7329 33.7495 30.9203C33.7495 28.1078 38.2496 22.4829 44.9997 22.4829C51.7499 22.4829 56.25 28.1078 56.25 30.9204Z" fill="#FFB380"/>
<path d="M33.75 37.9517C33.0041 37.9517 32.2887 38.248 31.7612 38.7754C31.2338 39.3029 30.9375 40.0182 30.9375 40.7641C30.9375 41.51 31.2338 42.2254 31.7612 42.7528C32.2887 43.2803 33.0041 43.5766 33.75 43.5766V37.9517ZM56.25 37.9517C56.9959 37.9517 57.7113 38.248 58.2387 38.7754C58.7661 39.3029 59.0625 40.0182 59.0625 40.7641C59.0625 41.51 58.7661 42.2254 58.2387 42.7528C57.7113 43.2803 56.9959 43.5766 56.25 43.5766V37.9517Z" fill="#A05A2C"/>
<path d="M33.4017 56.2769C28.3679 57.5248 18.0072 61.0856 14.5382 69.779C14.5095 69.8321 14.4829 69.8853 14.4553 69.9384C18.1465 74.4434 22.7912 78.0734 28.0545 80.5668C33.3179 83.0603 39.0688 84.3551 44.8929 84.3579C50.7734 84.3564 56.5789 83.0377 61.8831 80.4988C67.1873 77.9598 71.8554 74.265 75.5447 69.6857C72.0391 61.0601 61.7355 57.5203 56.7197 56.277L44.6457 74.9976L33.4017 56.2769Z" fill="#C8AB37"/>
<path d="M34.6231 28.1973C34.0563 29.1582 33.7497 30.0766 33.7497 30.8066C33.7497 32.1703 33.7496 33.8557 33.7497 36.2612L35.3592 36.1655C35.5456 30.0745 38.9682 29.2057 38.9682 29.2057L34.6231 28.1973Z" fill="url(#paint1_linear_53_24)"/>
<path d="M55.4311 28.2412C55.998 29.2022 56.3046 30.1206 56.3046 30.8505C56.3046 32.2143 56.3047 33.8996 56.3046 36.3052L54.6951 36.2095C54.5086 30.1184 51.0861 29.2497 51.0861 29.2497L55.4311 28.2412Z" fill="url(#paint2_linear_53_24)"/>
<path d="M41.792 16.4347C34.541 16.3922 35.1562 27.4649 35.1562 27.4649C33.5841 27.7413 32.2172 28.0602 31.0199 28.4153C31.9451 28.5598 33.0024 28.9361 34.1455 29.7117C37.9687 32.2996 54.3203 30.6992 56.5576 29.6903C58.2977 28.9048 59.709 29.1514 60.2545 29.3002C57.6548 28.1522 55.1404 27.6413 55.1404 27.6413C55.1404 27.6413 55.8294 19.845 52.9431 17.0944C51.1403 15.3767 45.4834 17.9293 41.792 16.4347Z" fill="#552200"/>
<path d="M45 25.4878L35.1562 26.1033C35.1287 26.8793 35.1536 27.3698 35.1562 27.4216L44.9121 26.6743L55.1953 27.6852L55.2888 27.6746C55.2538 27.667 55.1406 27.6427 55.1406 27.6427C55.1406 27.6427 55.1597 27.3567 55.1788 26.9666L45 25.4878Z" fill="#2B1100"/>
<path d="M45.9943 72.9106L44.6484 74.998L43.4125 72.9381V84.276C43.9045 84.3127 44.3971 84.3402 44.8901 84.3584C45.2584 84.3434 45.6265 84.3233 45.9943 84.298V72.9106Z" fill="black"/>
<path opacity="0.596" d="M36.5625 55.6094C36.5625 55.6094 35.4676 55.7688 33.7609 56.1919L36.5625 58.9934V55.6094Z" fill="black" fill-opacity="0.988"/>
<path d="M34.6509 55.98C33.9669 56.1331 33.1373 56.3382 32.1899 56.6114C32.1975 56.6433 32.2037 56.6752 32.2122 56.7071C37.4449 65.1064 44.2255 66.4942 45.0002 66.6278C45.775 66.4938 52.5556 65.1064 57.7883 56.7071C57.7968 56.6752 57.8032 56.6433 57.8106 56.6114C56.8631 56.3382 56.0336 56.1331 55.3496 55.98V55.9856C55.1666 56.2854 50.7262 63.4674 45.0664 64.2582C45.0442 64.261 45.0228 64.2661 45.0005 64.2689C44.9783 64.2658 44.9569 64.2608 44.9346 64.2582C39.2749 63.4674 34.8345 56.2854 34.6514 55.9856L34.6509 55.98Z" fill="#28220B"/>
<defs>
<linearGradient id="paint0_linear_53_24" x1="48.6" y1="31.5307" x2="48.6" y2="39.9232" gradientUnits="userSpaceOnUse">
<stop stop-color="#333333"/>
<stop offset="1" stop-color="white"/>
</linearGradient>
<linearGradient id="paint1_linear_53_24" x1="34.6925" y1="36.7861" x2="35.4047" y2="30.355" gradientUnits="userSpaceOnUse">
<stop stop-color="#FFB380"/>
<stop offset="1"/>
</linearGradient>
<linearGradient id="paint2_linear_53_24" x1="55.3638" y1="36.8311" x2="54.6516" y2="30.4" gradientUnits="userSpaceOnUse">
<stop stop-color="#FFB380"/>
<stop offset="1"/>
</linearGradient>
</defs>
</svg>
