<svg width="55" height="52" viewBox="0 0 55 52" fill="none" xmlns="http://www.w3.org/2000/svg">
<g clip-path="url(#clip0_38_67)">
<path fill-rule="evenodd" clip-rule="evenodd" d="M23.2188 2.14373C22.2666 3.29037 21.8777 4.62174 21.6598 5.85756C17.6064 5.94356 14.0156 7.74633 12.0744 10.9091C7.31016 11.7054 3.12261 14.3522 2.0028 18.1871C1.93967 18.4025 1.96919 18.6329 2.08489 18.8276C2.20058 19.0224 2.39296 19.1655 2.6197 19.2254C2.84645 19.2854 3.08898 19.2574 3.29396 19.1475C3.49893 19.0375 3.64955 18.8548 3.71269 18.6394C4.59781 15.6135 8.26568 13.1196 12.6376 12.4698C12.7799 12.4488 12.9147 12.3951 13.0304 12.3136C13.146 12.232 13.2391 12.1249 13.3015 12.0016C15.2695 9.12229 18.7765 7.12842 22.213 7.3673C22.3288 7.37692 22.4455 7.36478 22.5563 7.33157C22.6672 7.29836 22.7701 7.24474 22.8591 7.17375C22.9481 7.10277 23.0216 7.01582 23.0753 6.91787C23.1289 6.81992 23.1618 6.71288 23.1719 6.60287C23.3103 5.36095 23.8068 4.17942 24.6068 3.18844C26.6252 1.17864 29.8639 0.79643 31.7247 2.86993C32.5126 3.7745 33.0188 5.10906 33.2904 6.63472C33.3136 6.76376 33.3681 6.8859 33.4496 6.99148C33.531 7.09707 33.6372 7.1832 33.7598 7.24308C36.6062 8.61267 38.3899 11.3837 38.3932 14.4096C38.3932 14.9096 38.8459 15.3014 39.3655 15.2504C41.1358 15.5912 41.9773 16.8302 42.3528 18.3846C42.3478 18.603 42.4324 18.8147 42.5888 18.9749C42.7452 19.135 42.9611 19.2311 43.1907 19.2427C43.4204 19.2543 43.6458 19.1805 43.8192 19.037C43.9925 18.8934 44.1003 18.6915 44.1197 18.4738C43.9085 16.0021 42.3696 14.4096 40.0294 13.9382C39.9461 12.3175 39.432 10.7434 38.535 9.36261C37.6379 7.98186 36.3873 6.83954 34.8997 6.0423C34.5845 4.47204 34.1018 2.95275 33.0892 1.79337C30.0081 -0.780196 25.5724 -0.512647 23.2188 2.14373ZM54.0739 16.6041C54.0435 16.6079 54.0133 16.6132 53.9834 16.62L47.7742 17.4577C47.5633 17.4868 47.3705 17.5873 47.2313 17.7406C47.0921 17.8939 47.0158 18.0898 47.0164 18.2922C47.0164 20.4804 47.3182 22.3086 47.1707 23.5413C47.0969 24.1592 46.936 24.6051 46.6309 24.9682C46.3258 25.3313 45.843 25.653 44.9713 25.9173C44.8295 25.9603 44.7014 26.0365 44.5989 26.139C44.4963 26.2414 44.4226 26.3667 44.3845 26.5034L40.9782 38.6323L11.3737 44.0406C11.0049 44.1075 10.7534 43.9801 10.6931 43.7348L7.07211 29.0515C7.05057 28.9387 7.00508 28.8313 6.93841 28.7358C6.87174 28.6402 6.78529 28.5586 6.68433 28.4959C6.58337 28.4331 6.47002 28.3906 6.35118 28.3708C6.23234 28.351 6.11051 28.3544 5.99312 28.3809C5.87572 28.4073 5.76522 28.4561 5.66834 28.5245C5.57147 28.5928 5.49026 28.6791 5.42966 28.7782C5.36906 28.8773 5.33034 28.9871 5.31587 29.1009C5.30139 29.2147 5.31146 29.3301 5.34546 29.4401L8.9664 44.1234C9.25809 45.3083 10.5556 45.907 11.7089 45.6936L27.9126 42.7347L42.3226 50.6401C42.457 50.7138 42.6095 50.7527 42.7647 50.7528C42.9198 50.7529 43.0723 50.7142 43.2068 50.6406C43.3413 50.5671 43.4531 50.4612 43.5309 50.3336C43.6088 50.2061 43.6499 50.0613 43.6503 49.9139V35.6606L46.0207 27.22C46.8119 26.8984 47.5696 26.5512 48.0189 26.0161C48.5461 25.3541 48.8636 24.563 48.9342 23.7355C49.1018 22.3245 48.8738 20.7193 48.8101 19.0216L54.2382 18.2858C54.4634 18.2546 54.6674 18.1424 54.8081 17.9725C54.9488 17.8025 55.0155 17.5878 54.9944 17.3725C54.9733 17.1572 54.8661 16.9578 54.6948 16.8155C54.5236 16.6731 54.3013 16.5986 54.0739 16.6073V16.6041ZM1.77817 19.9803C1.30856 19.9845 0.859478 20.1638 0.527715 20.4795C0.195952 20.7953 0.00807498 21.2223 0.00457764 21.6684V23.3533C0.00457764 24.2706 0.809231 25.0383 1.78152 25.0383H44.3544C45.32 25.0383 46.1313 24.2738 46.1313 23.3501V21.6684C46.1269 21.222 45.9383 20.795 45.606 20.4793C45.2737 20.1636 44.8243 19.9845 44.3544 19.9803H1.77817ZM1.77817 21.6684H44.3544V23.3533H1.77481L1.77817 21.6684ZM6.46527 26.1339C6.30267 26.2941 6.2132 26.5087 6.21634 26.7312C6.21948 26.9537 6.31497 27.166 6.48204 27.322L18.1596 38.2692C18.3272 38.4284 18.5552 38.5144 18.7899 38.5144H39.6572C39.8556 38.5152 40.0485 38.4529 40.2052 38.3375C40.362 38.222 40.4736 38.0601 40.5222 37.8774L43.4424 26.9302C43.4838 26.7191 43.4389 26.5009 43.3169 26.3201C43.1948 26.1394 43.0049 26.0096 42.7856 25.9572C42.5664 25.9048 42.3344 25.9338 42.1369 26.0382C41.9394 26.1427 41.7912 26.3147 41.7225 26.5193L38.9733 36.8263H19.1453L7.72254 26.118C7.55112 25.9655 7.32437 25.8817 7.08954 25.8841C6.85471 25.8865 6.62989 25.9748 6.46192 26.1307L6.46527 26.1339ZM10.9847 35.1573C10.7412 35.1478 10.4974 35.1478 10.2538 35.1573C10.0182 35.167 9.79629 35.2653 9.6369 35.4304C9.47751 35.5956 9.39371 35.8141 9.40393 36.038C9.41416 36.2619 9.51757 36.4727 9.69142 36.6241C9.86527 36.7755 10.0953 36.8551 10.331 36.8454C11.8671 36.7785 13.3846 37.1878 14.6546 38.0117C15.9245 38.8355 16.8781 40.0292 17.3717 41.4129C17.4098 41.5174 17.4692 41.6139 17.5465 41.6966C17.6238 41.7794 17.7175 41.8469 17.8222 41.8952C17.927 41.9436 18.0408 41.9719 18.157 41.9785C18.2733 41.985 18.3898 41.9698 18.4999 41.9336C18.6099 41.8975 18.7114 41.841 18.7985 41.7676C18.8857 41.6941 18.9567 41.6051 19.0076 41.5056C19.0585 41.4061 19.0883 41.298 19.0952 41.1875C19.1022 41.0771 19.0861 40.9664 19.048 40.8618C18.4697 39.2474 17.3893 37.8378 15.9495 36.8192C14.5098 35.8006 12.7786 35.2211 10.9847 35.1573ZM5.6405 36.7754C5.46647 36.7901 5.30087 36.8532 5.16442 36.9569C3.73133 38.0291 2.68084 39.4947 2.15591 41.1543C1.63098 42.814 1.65712 44.5869 2.23078 46.2319C2.80825 47.8745 3.90393 49.3083 5.36898 50.3387C6.83403 51.3691 8.59744 51.9461 10.4197 51.9913C12.2419 52.0366 14.0346 51.5478 15.5543 50.5915C17.074 49.6352 18.247 48.2576 18.9139 46.646C19.0002 46.4373 18.9956 46.2047 18.9013 45.9992C18.807 45.7937 18.6307 45.6323 18.411 45.5503C18.1914 45.4684 17.9465 45.4727 17.7302 45.5623C17.5139 45.6519 17.3439 45.8194 17.2577 46.0281C16.7292 47.3216 15.7931 48.4286 14.5774 49.1977C13.3617 49.9668 11.9256 50.3604 10.4655 50.3249C9.00534 50.2893 7.5924 49.8263 6.41973 48.9991C5.24707 48.1719 4.3719 47.0208 3.91385 45.7032C3.45296 44.3875 3.43072 42.9686 3.85015 41.6404C4.26958 40.3122 5.11025 39.1394 6.2574 38.2819C6.40788 38.1702 6.51647 38.0155 6.56709 37.8405C6.6177 37.6656 6.60765 37.4799 6.53843 37.3108C6.4692 37.1417 6.34447 36.9983 6.18274 36.9019C6.021 36.8055 5.83087 36.7611 5.6405 36.7754ZM41.8801 40.1866V48.4519L30.5713 42.2537L41.8667 40.193L41.8801 40.1866Z" fill="white"/>
</g>
<defs>
<clipPath id="clip0_38_67">
<rect width="55" height="52" fill="white"/>
</clipPath>
</defs>
</svg>
