<svg width="26" height="26" viewBox="0 0 26 26" fill="none" xmlns="http://www.w3.org/2000/svg">
<path id="Vector" d="M2.16757 14.8893L18.6194 14.8893L11.4664 21.8815C11.0583 22.2817 10.829 22.8245 10.829 23.3904C10.829 23.9564 11.0583 24.4992 11.4664 24.8994C11.8746 25.2996 12.4282 25.5244 13.0054 25.5244C13.5826 25.5244 14.1362 25.2996 14.5444 24.8994L25.3822 14.273C25.5796 14.0709 25.7342 13.8325 25.8374 13.5717C26.0542 13.0542 26.0542 12.4739 25.8374 11.9564C25.7342 11.6956 25.5796 11.4572 25.3822 11.2551L14.5444 0.62871C14.3429 0.42951 14.1031 0.271399 13.839 0.163502C13.5749 0.055603 13.2915 5.34058e-05 13.0054 5.34058e-05C12.7193 5.34058e-05 12.4359 0.055603 12.1718 0.163502C11.9077 0.271399 11.6679 0.42951 11.4664 0.62871C11.2633 0.826283 11.102 1.06134 10.992 1.32032C10.8819 1.57931 10.8253 1.85709 10.8253 2.13766C10.8253 2.41822 10.8819 2.696 10.992 2.95499C11.102 3.21397 11.2633 3.44903 11.4664 3.6466L18.6194 10.6388L2.16757 10.6388C1.59269 10.6388 1.04136 10.8627 0.634863 11.2612C0.228365 11.6598 0 12.2004 0 12.764C0 13.3277 0.228365 13.8683 0.634863 14.2668C1.04136 14.6654 1.59269 14.8893 2.16757 14.8893Z" fill="#F1DEC9"/>
</svg>
