<svg width="20" height="31" viewBox="0 0 20 31" fill="none" xmlns="http://www.w3.org/2000/svg">
<path d="M16.8319 0.540771L15.2541 3.3101C15.1584 3.47178 14.9831 3.57608 14.7919 3.57608H4.67687C4.48562 3.57608 4.31031 3.47178 4.21469 3.3101L2.71656 0.681585C1.38844 1.18226 0.4375 2.47044 0.4375 3.97766V27.1649C0.4375 29.1103 2.01531 30.6957 3.95969 30.6957H16.0403C17.9847 30.6957 19.5625 29.1103 19.5625 27.1649V3.97766C19.5625 2.30355 18.3938 0.895413 16.8319 0.540771ZM6.47781 21.6211C6.47781 21.3452 6.70094 21.1152 6.9825 21.1152H7.98656C8.26334 21.1152 8.49125 21.3447 8.49125 21.6211C8.49125 21.8975 8.26281 22.1275 7.98656 22.1275H6.9825C6.70094 22.127 6.47781 21.8975 6.47781 21.6211ZM6.47781 19.1021C6.47781 18.821 6.70094 18.5962 6.9825 18.5962H7.98656C8.26334 18.5962 8.49125 18.821 8.49125 19.1021C8.49125 19.3785 8.26281 19.6033 7.98656 19.6033H6.9825C6.70094 19.6027 6.47781 19.3785 6.47781 19.1021ZM10 29.1833C8.88969 29.1833 7.98656 28.2815 7.98656 27.1655C7.98656 26.0541 8.88969 25.1524 10 25.1524C11.1103 25.1524 12.0134 26.0541 12.0134 27.1655C12.0134 28.281 11.1103 29.1833 10 29.1833ZM13.0175 22.127H9.49531C9.21906 22.127 8.99063 21.8975 8.99063 21.6205C8.99063 21.3447 9.21959 21.1147 9.49531 21.1147H13.0175C13.2991 21.1147 13.5222 21.3441 13.5222 21.6205C13.5222 21.8975 13.2991 22.127 13.0175 22.127ZM13.0175 19.6027H9.49531C9.21906 19.6027 8.99063 19.378 8.99063 19.1016C8.99063 18.8204 9.21959 18.5957 9.49531 18.5957H13.0175C13.2991 18.5957 13.5222 18.8204 13.5222 19.1016C13.5222 19.3785 13.2991 19.6027 13.0175 19.6027ZM14.3669 11.1122V11.1174C14.3616 13.553 12.3805 15.5348 9.94741 15.5348C7.51428 15.5348 5.53219 13.5478 5.53219 11.1075C5.53219 8.66623 7.51375 6.68493 9.94741 6.68493C10.5844 6.68493 11.1852 6.82053 11.7271 7.06043C11.7377 7.06617 11.7483 7.07139 11.759 7.07608C12.2536 7.30034 12.7046 7.61326 13.0871 7.99398C13.0871 7.99971 13.0929 7.99971 13.0983 8.00493L13.1036 8.01536C13.4754 8.40129 13.7836 8.84459 13.9961 9.34005C14.0072 9.35569 14.012 9.37186 14.0173 9.38699C14.241 9.91425 14.3679 10.4926 14.3679 11.1028C14.3669 11.1018 14.3669 11.107 14.3669 11.1122Z" fill="white"/>
</svg>
