<svg width="44" height="43" viewBox="0 0 44 43" fill="none" xmlns="http://www.w3.org/2000/svg">
<path d="M19 42.4374C22.7 42.4374 25.8 39.4922 25.8 35.7618V31.8349C25.8 30.4605 27 29.2825 28.4 29.2825C30.7 29.2825 32.5 27.5154 32.5 25.2575V12.0045C32.5 10.6301 33.6 9.5502 35 9.5502C36.4 9.5502 37.5 10.6301 37.5 12.0045V32.8166C35.1 33.2093 33.3 35.1727 33.3 37.627C33.3 40.2776 35.5 42.5355 38.3 42.5355C41.1 42.5355 43.3 40.3758 43.3 37.627C43.3 35.1727 41.5 33.2093 39.1 32.8166V12.0045C39.1 9.84471 37.3 8.07764 35.1 8.07764C32.9 8.07764 31.1 9.84471 31.1 12.0045V25.3557C31.1 26.7301 29.9 27.9081 28.5 27.9081C26.2 27.9081 24.4 29.6752 24.4 31.9331V35.8599C24.4 38.7069 22 41.063 19.1 41.063C16.2 41.063 13.8 38.7069 13.8 35.8599V26.0429C20.2 25.6502 25.4 20.349 25.4 13.8697V4.5435C25.4 2.38374 23.6 0.714844 21.5 0.714844V2.1874C22.8 2.1874 23.9 3.26728 23.9 4.5435V13.8697C23.9 19.7599 19 24.5703 13 24.5703C6.99998 24.5703 2.09998 19.7599 2.09998 13.8697V4.5435C2.09998 3.26728 3.19998 2.1874 4.49998 2.1874V0.714844C2.29998 0.714844 0.599976 2.48191 0.599976 4.5435V13.8697C0.599976 20.349 5.79997 25.6502 12.2 25.9447V35.7618C12.3 39.4922 15.3 42.4374 19 42.4374ZM41.6 37.627C41.6 39.4922 40 41.063 38.1 41.063C36.2 41.063 34.6 39.4922 34.6 37.627C34.6 35.7618 36.2 34.191 38.1 34.191C40 34.191 41.6 35.7618 41.6 37.627Z" fill="#384A66"/>
</svg>
