<svg width="38" height="52" viewBox="0 0 38 52" fill="none" xmlns="http://www.w3.org/2000/svg">
<path d="M32.0625 32.9296C32.0625 25.8919 26.2022 20.1675 19 20.1675C11.7978 20.1675 5.9375 25.893 5.9375 32.9296C5.9375 34.2175 6.14887 35.5064 6.5645 36.7699C6.16075 37.3454 5.9375 38.0287 5.9375 38.7306C5.9375 40.6496 7.53587 42.2112 9.5 42.2112C9.91681 42.2112 10.3146 42.1358 10.6875 42.007V43.3714C10.6875 44.0119 11.2183 44.5316 11.875 44.5316H26.125C26.7817 44.5316 27.3125 44.0119 27.3125 43.3714V42.007C27.6854 42.1358 28.0832 42.2112 28.5 42.2112C30.4641 42.2112 32.0625 40.6496 32.0625 38.7306C32.0625 38.0287 31.8393 37.3442 31.4343 36.7699C31.8511 35.5041 32.0625 34.2151 32.0625 32.9296ZM13.0625 39.8908H15.4375V42.2112H13.0625V39.8908ZM20.1875 42.2112H17.8125V39.8908H20.1875V42.2112ZM24.9375 42.2112H22.5625V39.8908H24.9375V42.2112ZM29.2909 37.8767C29.5474 38.1018 29.6875 38.4058 29.6875 38.7306C29.6875 39.3699 29.1555 39.8908 28.5 39.8908C27.8445 39.8908 27.3125 39.3699 27.3125 38.7306C27.3125 38.0902 26.7817 37.5704 26.125 37.5704H21.375H16.625H11.875C11.2183 37.5704 10.6875 38.0902 10.6875 38.7306C10.6875 39.3699 10.1555 39.8908 9.5 39.8908C8.8445 39.8908 8.3125 39.3699 8.3125 38.7306C8.3125 38.4058 8.45262 38.103 8.70912 37.8767C9.0725 37.5553 9.196 37.0507 9.02262 36.6028C8.55119 35.3951 8.3125 34.1594 8.3125 32.9296C8.3125 27.1716 13.1064 22.4879 19 22.4879C24.8936 22.4879 29.6875 27.1727 29.6875 32.9296C29.6875 34.1571 29.4488 35.3927 28.9774 36.604C28.804 37.0507 28.9287 37.5553 29.2909 37.8767ZM17.803 29.1207C17.7424 28.1357 17.3743 27.2215 16.815 26.6762C16.2022 26.0775 15.295 25.8431 14.3189 26.0334C13.5054 26.1924 12.6932 26.6356 12.0317 27.2818C10.5165 28.7622 10.2434 30.8146 11.4107 31.9551C12.0032 32.5329 13.0863 32.9354 14.2049 32.9354C15.1406 32.9354 16.1013 32.6524 16.815 31.9551C17.5227 31.2648 17.8743 30.2577 17.803 29.1207ZM15.1359 30.3146C14.6217 30.8169 13.3606 30.5779 13.0898 30.3146C13.0138 30.2403 13.0292 29.5894 13.7109 28.9223C14.0398 28.6009 14.4305 28.377 14.7844 28.3086C14.8592 28.2935 15.0694 28.2482 15.1347 28.3167C15.2083 28.3933 15.3995 28.7297 15.4316 29.2599C15.4613 29.7112 15.3496 30.1057 15.1359 30.3146ZM23.6811 26.0334C22.7062 25.842 21.7978 26.0775 21.185 26.6762C20.6257 27.2226 20.2576 28.1357 20.197 29.1207C20.1257 30.2577 20.4773 31.2648 21.185 31.9551C21.8999 32.6524 22.8594 32.9354 23.7951 32.9354C24.9126 32.9354 25.9968 32.5329 26.5893 31.9551C27.7554 30.8146 27.4835 28.7622 25.9683 27.2818C25.3068 26.6356 24.4934 26.1924 23.6811 26.0334ZM24.9102 30.3146C24.6394 30.5779 23.3783 30.8169 22.8641 30.3146C22.6504 30.1057 22.5399 29.7113 22.5672 29.2588C22.5993 28.7286 22.7905 28.3933 22.8641 28.3155C22.9294 28.2471 23.1384 28.2923 23.2144 28.3074C23.5683 28.377 23.959 28.5998 24.2879 28.9212C24.9707 29.5894 24.9862 30.2403 24.9102 30.3146ZM18.6521 33.2696C18.8848 33.4958 19 33.7928 19 34.0898C19 34.3868 18.8836 34.6839 18.6521 34.9101L17.4646 36.0703C17.0003 36.5239 16.2497 36.5239 15.7854 36.0703C15.3211 35.6167 15.3211 34.8834 15.7854 34.4298L16.9729 33.2696C17.4372 32.8159 18.1889 32.8159 18.6521 33.2696ZM22.2146 34.4298C22.6789 34.8834 22.6789 35.6167 22.2146 36.0703C21.7503 36.5239 20.9997 36.5239 20.5354 36.0703L19.3479 34.9101C19.1164 34.6839 19 34.3868 19 34.0898C19 33.7928 19.1164 33.4958 19.3479 33.2696C19.8122 32.8159 20.5628 32.8159 21.0271 33.2696L22.2146 34.4298ZM26.125 15.7378V7.40528H27.3125C27.9692 7.40528 28.5 6.88551 28.5 6.24508V1.60429C28.5 0.963861 27.9692 0.444092 27.3125 0.444092H10.6875C10.0308 0.444092 9.5 0.963861 9.5 1.60429V6.24508C9.5 6.88551 10.0308 7.40528 10.6875 7.40528H11.875V15.7367C4.73812 18.5606 0 25.3675 0 32.9296C0 43.1649 8.52388 51.4928 19 51.4928C29.4761 51.4928 38 43.1649 38 32.9296C38 25.3675 33.2631 18.5606 26.125 15.7378ZM14.25 7.40528H23.75V9.72568H14.25V7.40528ZM11.875 2.76449H26.125V5.08488H11.875V2.76449ZM19 49.1724C9.8325 49.1724 2.375 41.8864 2.375 32.9296C2.375 26.0729 6.82931 19.925 13.4591 17.6313C13.9341 17.4665 14.25 17.0291 14.25 16.5372V12.0461H23.75V16.5384C23.75 17.0303 24.0671 17.4677 24.5409 17.6324C31.1707 19.925 35.625 26.0717 35.625 32.9296C35.625 41.8864 28.1675 49.1724 19 49.1724Z" fill="white"/>
</svg>
