<svg width="60" height="60" viewBox="0 0 60 60" fill="none" xmlns="http://www.w3.org/2000/svg">
<path d="M47.496 53.2501C45.7717 53.2501 44.976 52.7041 43.9673 52.0126C42.8213 51.2273 41.3947 50.2501 38.742 50.2501C36.09 50.2501 34.665 51.2281 33.5198 52.0126C32.5125 52.7041 31.716 53.2501 29.9948 53.2501C28.2712 53.2501 27.4748 52.7041 26.4668 52.0126C25.3215 51.2281 23.8958 50.2501 21.243 50.2501C18.5917 50.2501 17.166 51.2281 16.0208 52.0126C15.0135 52.7041 14.2177 53.2501 12.4957 53.2501C10.7737 53.2501 9.97875 52.7041 8.97075 52.0126C7.82625 51.2288 6.40125 50.2501 3.75 50.2501V53.2501C5.47125 53.2501 6.26625 53.7961 7.27425 54.4876C8.41875 55.2713 9.84375 56.2501 12.495 56.2501C15.147 56.2501 16.572 55.2721 17.7172 54.4876C18.7245 53.7961 19.5203 53.2501 21.2423 53.2501C22.9657 53.2501 23.7623 53.7961 24.7695 54.4876C25.9155 55.2721 27.3413 56.2501 29.9933 56.2501C32.6453 56.2501 34.071 55.2721 35.2155 54.4876C36.225 53.7953 37.02 53.2501 38.742 53.2501C40.467 53.2501 41.262 53.7961 42.2708 54.4876C43.4175 55.2728 44.8433 56.2501 47.496 56.2501C50.1488 56.2501 51.5752 55.2728 52.7212 54.4876C53.73 53.7953 54.525 53.2501 56.25 53.2501V50.2501C53.5973 50.2501 52.1715 51.2273 51.0247 52.0126C50.016 52.7041 49.2202 53.2501 47.496 53.2501ZM47.496 46.5001C45.7717 46.5001 44.976 45.9541 43.9673 45.2626C42.8213 44.4773 41.3947 43.5001 38.742 43.5001C36.09 43.5001 34.665 44.4781 33.5198 45.2626C32.5125 45.9541 31.716 46.5001 29.9948 46.5001C28.2712 46.5001 27.4748 45.9541 26.4668 45.2626C25.3215 44.4781 23.8958 43.5001 21.243 43.5001C18.5917 43.5001 17.166 44.4781 16.0208 45.2626C15.0135 45.9541 14.2177 46.5001 12.4957 46.5001C10.7737 46.5001 9.97875 45.9541 8.97075 45.2626C7.82625 44.4788 6.40125 43.5001 3.75 43.5001V46.5001C5.47125 46.5001 6.26625 47.0461 7.27425 47.7376C8.41875 48.5213 9.84375 49.5001 12.495 49.5001C15.147 49.5001 16.572 48.5221 17.7172 47.7376C18.7245 47.0461 19.5203 46.5001 21.2423 46.5001C22.9657 46.5001 23.7623 47.0461 24.7695 47.7376C25.9155 48.5221 27.3413 49.5001 29.9933 49.5001C32.6453 49.5001 34.071 48.5221 35.2155 47.7376C36.225 47.0453 37.02 46.5001 38.742 46.5001C40.467 46.5001 41.262 47.0461 42.2708 47.7376C43.4175 48.5228 44.8433 49.5001 47.496 49.5001C50.1488 49.5001 51.5752 48.5228 52.7212 47.7376C53.73 47.0453 54.525 46.5001 56.25 46.5001V43.5001C53.5973 43.5001 52.1715 44.4773 51.0247 45.2626C50.016 45.9541 49.2202 46.5001 47.496 46.5001ZM47.496 39.7501C45.7717 39.7501 44.976 39.2041 43.9673 38.5126C42.8213 37.7273 41.3947 36.7501 38.742 36.7501C36.09 36.7501 34.665 37.7281 33.5198 38.5126C32.5125 39.2041 31.716 39.7501 29.9948 39.7501C28.2712 39.7501 27.4748 39.2041 26.4668 38.5126C25.3215 37.7281 23.8958 36.7501 21.243 36.7501C18.5917 36.7501 17.166 37.7281 16.0208 38.5126C15.0135 39.2041 14.2177 39.7501 12.4957 39.7501C10.7737 39.7501 9.97875 39.2041 8.97075 38.5126C7.82625 37.7288 6.40125 36.7501 3.75 36.7501V39.7501C5.47125 39.7501 6.26625 40.2961 7.27425 40.9876C8.41875 41.7713 9.84375 42.7501 12.495 42.7501C15.147 42.7501 16.572 41.7721 17.7172 40.9876C18.7245 40.2961 19.5203 39.7501 21.2423 39.7501C22.9657 39.7501 23.7623 40.2961 24.7695 40.9876C25.9155 41.7721 27.3413 42.7501 29.9933 42.7501C32.6453 42.7501 34.071 41.7721 35.2155 40.9876C36.225 40.2953 37.02 39.7501 38.742 39.7501C40.467 39.7501 41.262 40.2961 42.2708 40.9876C43.4175 41.7728 44.8433 42.7501 47.496 42.7501C50.1488 42.7501 51.5752 41.7728 52.7212 40.9876C53.73 40.2953 54.525 39.7501 56.25 39.7501V36.7501C53.5973 36.7501 52.1715 37.7273 51.0247 38.5126C50.016 39.2041 49.2202 39.7501 47.496 39.7501ZM47.496 33.0001C45.7717 33.0001 44.976 32.4541 43.9673 31.7626C42.8213 30.9773 41.3947 30.0001 38.742 30.0001C36.09 30.0001 34.665 30.9781 33.5198 31.7626C32.5125 32.4541 31.716 33.0001 29.9948 33.0001C28.2712 33.0001 27.4748 32.4541 26.4668 31.7626C25.3215 30.9781 23.8958 30.0001 21.243 30.0001C18.5917 30.0001 17.166 30.9781 16.0208 31.7626C15.0135 32.4541 14.2177 33.0001 12.4957 33.0001C10.7737 33.0001 9.97875 32.4541 8.97075 31.7626C7.82625 30.9788 6.40125 30.0001 3.75 30.0001V33.0001C5.47125 33.0001 6.26625 33.5461 7.27425 34.2376C8.41875 35.0213 9.84375 36.0001 12.495 36.0001C15.147 36.0001 16.572 35.0221 17.7172 34.2376C18.7245 33.5461 19.5203 33.0001 21.2423 33.0001C22.9657 33.0001 23.7623 33.5461 24.7695 34.2376C25.9155 35.0221 27.3413 36.0001 29.9933 36.0001C32.6453 36.0001 34.071 35.0221 35.2155 34.2376C36.225 33.5453 37.02 33.0001 38.742 33.0001C40.467 33.0001 41.262 33.5461 42.2708 34.2376C43.4175 35.0228 44.8433 36.0001 47.496 36.0001C50.1488 36.0001 51.5752 35.0228 52.7212 34.2376C53.73 33.5453 54.525 33.0001 56.25 33.0001V30.0001C53.5973 30.0001 52.1715 30.9773 51.0247 31.7626C50.016 32.4541 49.2202 33.0001 47.496 33.0001ZM18.324 4.31859C18.0352 4.68309 11.25 13.3201 11.25 19.5001C11.25 24.0488 14.9513 27.7501 19.5 27.7501C24.0487 27.7501 27.75 24.0488 27.75 19.5001C27.75 13.3201 20.9648 4.68309 20.676 4.31859C20.1068 3.60084 18.8932 3.60084 18.324 4.31859ZM19.5 24.7501C16.605 24.7501 14.25 22.3951 14.25 19.5001C14.25 15.9923 17.3925 10.7671 19.5007 7.76784C21.609 10.7648 24.75 15.9856 24.75 19.5001C24.75 22.3951 22.395 24.7501 19.5 24.7501ZM39.3247 11.8186C38.847 12.4216 34.6598 17.8246 34.6598 21.9106C34.6605 25.1303 37.281 27.7501 40.5 27.7501C43.719 27.7501 46.3395 25.1303 46.3395 21.9106C46.3395 17.8246 42.153 12.4216 41.6753 11.8186C41.1075 11.1008 39.8925 11.1008 39.3247 11.8186ZM43.3395 21.9106C43.3395 23.4766 42.066 24.7501 40.5 24.7501C38.934 24.7501 37.6605 23.4766 37.6605 21.9106C37.6605 20.0116 39.2265 17.2216 40.5 15.3151C41.7735 17.2216 43.3395 20.0116 43.3395 21.9106Z" fill="white"/>
</svg>
