<svg width="37" height="37" viewBox="0 0 37 37" fill="none" xmlns="http://www.w3.org/2000/svg">
<g id="&#240;&#159;&#166;&#134; icon &#34;facebook&#34;">
<path id="Vector" d="M36.1163 25.6245C36.1163 32.1977 32.1977 36.1163 25.6245 36.1163H23.4756C22.4824 36.1163 21.6698 35.3037 21.6698 34.3105V23.8909C21.6698 23.4034 22.0671 22.988 22.5546 22.988L25.7329 22.9338C25.9857 22.9158 26.2024 22.7352 26.2565 22.4824L26.8886 19.0333C26.9428 18.7082 26.6899 18.4012 26.3468 18.4012L22.5004 18.4554C21.9948 18.4554 21.5975 18.0581 21.5795 17.5706L21.5072 13.1463C21.5072 12.8574 21.742 12.6046 22.049 12.6046L26.383 12.5324C26.6899 12.5324 26.9247 12.2976 26.9247 11.9906L26.8525 7.65664C26.8525 7.34965 26.6177 7.11491 26.3107 7.11491L21.435 7.18716C18.4374 7.24133 16.0537 9.69722 16.1079 12.6949L16.1982 17.6609C16.2162 18.1665 15.8189 18.5638 15.3133 18.5818L13.1463 18.6179C12.8393 18.6179 12.6046 18.8527 12.6046 19.1597L12.6588 22.5907C12.6588 22.8977 12.8935 23.1325 13.2005 23.1325L15.3675 23.0964C15.8731 23.0964 16.2704 23.4936 16.2884 23.9812L16.451 34.2744C16.469 35.2856 15.6564 36.1163 14.6452 36.1163H10.4918C3.91862 36.1163 0 32.1977 0 25.6065V10.4918C0 3.91862 3.91862 0 10.4918 0H25.6245C32.1977 0 36.1163 3.91862 36.1163 10.4918V25.6245Z" fill="#F1DEC9"/>
</g>
</svg>
