<svg width="22" height="22" viewBox="0 0 22 22" fill="none" xmlns="http://www.w3.org/2000/svg">
<g id="&#240;&#159;&#166;&#134; icon &#34;phone&#34;">
<path id="Vector" d="M15.591 19.7128C11.9328 19.7081 8.42569 18.2527 5.83891 15.666C3.25213 13.0792 1.79679 9.57211 1.79205 5.91386C1.79205 4.8207 2.22631 3.77231 2.99929 2.99933C3.77227 2.22635 4.82066 1.79209 5.91382 1.79209C6.1453 1.79033 6.3764 1.81134 6.60377 1.85482C6.82357 1.88734 7.03966 1.94136 7.24891 2.0161C7.39608 2.06774 7.52723 2.1569 7.62938 2.27476C7.73153 2.39263 7.80114 2.53511 7.83134 2.68813L9.05891 8.06435C9.09199 8.21028 9.08801 8.36217 9.04731 8.50617C9.00662 8.65016 8.93051 8.78167 8.82594 8.8887C8.70945 9.01414 8.70049 9.02311 7.59837 9.59657C8.48096 11.5328 10.0295 13.0877 11.9621 13.9782C12.5445 12.8671 12.5534 12.8581 12.6789 12.7417C12.7859 12.6371 12.9174 12.561 13.0614 12.5203C13.2054 12.4796 13.3573 12.4756 13.5032 12.5087L18.8795 13.7363C19.0276 13.7706 19.1645 13.8421 19.2774 13.944C19.3902 14.0459 19.4753 14.1748 19.5246 14.3187C19.6002 14.5314 19.6572 14.7502 19.6949 14.9728C19.7309 15.198 19.7489 15.4257 19.7486 15.6538C19.7321 16.7423 19.2856 17.78 18.5067 18.5405C17.7277 19.301 16.6796 19.7224 15.591 19.7128Z" fill="#F1DEC9"/>
</g>
</svg>
