<svg width="37" height="37" viewBox="0 0 37 37" fill="none" xmlns="http://www.w3.org/2000/svg">
<g id="&#240;&#159;&#166;&#134; icon &#34;instagram&#34;">
<path id="Vector" d="M26.1409 0H10.7032C3.99758 0 0 3.99758 0 10.7032V26.1224C0 32.8465 3.99758 36.8441 10.7032 36.8441H26.1224C32.8281 36.8441 36.8256 32.8465 36.8256 26.1409V10.7032C36.8441 3.99758 32.8465 0 26.1409 0ZM18.422 25.5698C14.4797 25.5698 11.2743 22.3643 11.2743 18.422C11.2743 14.4797 14.4797 11.2743 18.422 11.2743C22.3643 11.2743 25.5698 14.4797 25.5698 18.422C25.5698 22.3643 22.3643 25.5698 18.422 25.5698ZM29.3279 8.98995C29.2358 9.21101 29.1068 9.41366 28.941 9.59788C28.7568 9.76368 28.5541 9.89263 28.3331 9.98474C28.112 10.0768 27.8725 10.1321 27.633 10.1321C27.1356 10.1321 26.6751 9.9479 26.3251 9.59788C26.1593 9.41366 26.0303 9.21101 25.9382 8.98995C25.8461 8.76889 25.7908 8.5294 25.7908 8.28991C25.7908 8.05043 25.8461 7.81094 25.9382 7.58988C26.0303 7.35039 26.1593 7.16617 26.3251 6.98195C26.7488 6.55824 27.3936 6.3556 27.9831 6.48455C28.112 6.50298 28.2225 6.53982 28.3331 6.59509C28.4436 6.63193 28.5541 6.6872 28.6647 6.76088C28.7568 6.81615 28.8489 6.90826 28.941 6.98195C29.1068 7.16617 29.2358 7.35039 29.3279 7.58988C29.42 7.81094 29.4752 8.05043 29.4752 8.28991C29.4752 8.5294 29.42 8.76889 29.3279 8.98995Z" fill="#F1DEC9"/>
</g>
</svg>
