<svg width="21" height="21" viewBox="0 0 21 21" fill="none" xmlns="http://www.w3.org/2000/svg">
<g id="&#240;&#159;&#166;&#134; icon &#34;message circle&#34;">
<path id="Vector" d="M16.2928 4.21204C14.891 2.80104 13.0408 1.92336 11.0612 1.7303C9.08158 1.53724 7.09666 2.04089 5.44862 3.15444C3.80057 4.26798 2.59268 5.92163 2.03317 7.8303C1.47367 9.73896 1.59762 11.783 2.38367 13.6101C2.46559 13.7799 2.49247 13.9711 2.46056 14.1569L1.70871 17.7709C1.67975 17.9094 1.68566 18.053 1.72593 18.1887C1.76619 18.3244 1.83954 18.448 1.93939 18.5484C2.02125 18.6296 2.1187 18.6935 2.22589 18.736C2.33308 18.7786 2.44778 18.7991 2.56308 18.7961H2.73396L6.39066 18.0614C6.57651 18.039 6.76497 18.0655 6.93745 18.1383C8.76452 18.9243 10.8086 19.0483 12.7173 18.4887C14.6259 17.9292 16.2796 16.7213 17.3931 15.0733C18.5067 13.4253 19.0103 11.4403 18.8173 9.46075C18.6242 7.48116 17.7465 5.63096 16.3355 4.22912L16.2928 4.21204ZM6.83493 11.1068C6.66595 11.1068 6.50077 11.0567 6.36027 10.9628C6.21977 10.8689 6.11026 10.7355 6.0456 10.5794C5.98093 10.4233 5.96401 10.2515 5.99698 10.0857C6.02994 9.92002 6.11131 9.76778 6.2308 9.6483C6.35029 9.52881 6.50252 9.44744 6.66825 9.41447C6.83398 9.38151 7.00577 9.39843 7.16188 9.46309C7.318 9.52776 7.45143 9.63726 7.54531 9.77776C7.63919 9.91826 7.6893 10.0834 7.6893 10.2524C7.6893 10.479 7.59929 10.6963 7.43906 10.8566C7.27883 11.0168 7.06152 11.1068 6.83493 11.1068ZM10.2524 11.1068C10.0834 11.1068 9.91825 11.0567 9.77775 10.9628C9.63724 10.8689 9.52774 10.7355 9.46307 10.5794C9.39841 10.4233 9.38149 10.2515 9.41445 10.0857C9.44742 9.92002 9.52879 9.76778 9.64828 9.6483C9.76776 9.52881 9.92 9.44744 10.0857 9.41447C10.2515 9.38151 10.4232 9.39843 10.5794 9.46309C10.7355 9.52776 10.8689 9.63726 10.9628 9.77776C11.0567 9.91826 11.1068 10.0834 11.1068 10.2524C11.1068 10.479 11.0168 10.6963 10.8565 10.8566C10.6963 11.0168 10.479 11.1068 10.2524 11.1068ZM13.6699 11.1068C13.5009 11.1068 13.3357 11.0567 13.1952 10.9628C13.0547 10.8689 12.9452 10.7355 12.8806 10.5794C12.8159 10.4233 12.799 10.2515 12.8319 10.0857C12.8649 9.92002 12.9463 9.76778 13.0658 9.6483C13.1852 9.52881 13.3375 9.44744 13.5032 9.41447C13.6689 9.38151 13.8407 9.39843 13.9968 9.46309C14.153 9.52776 14.2864 9.63726 14.3803 9.77776C14.4741 9.91826 14.5243 10.0834 14.5243 10.2524C14.5243 10.479 14.4342 10.6963 14.274 10.8566C14.1138 11.0168 13.8965 11.1068 13.6699 11.1068Z" fill="#F1DEC9"/>
</g>
</svg>
